<?xml version="1.0" encoding="UTF-8"?>
<svg version="1.1" xmlns="http://www.w3.org/2000/svg" width="1024" height="1024">
<path d="M0 0 C1.00439117 -0.00428513 2.00878235 -0.00857025 3.04360962 -0.01298523 C5.1563441 -0.01869676 7.26909823 -0.0192524 9.38183594 -0.01489258 C12.58563326 -0.01173445 15.78850408 -0.03522617 18.9921875 -0.06054688 C21.05729052 -0.06282062 23.12239598 -0.06352301 25.1875 -0.0625 C26.13056 -0.07170975 27.07362 -0.08091949 28.04525757 -0.09040833 C40.86409064 -0.00277114 52.86914032 4.15595243 62.4765625 12.80078125 C70.30846099 21.13327531 74.38449189 31.84594893 74.35786438 43.13523865 C74.35998009 43.92986025 74.36209581 44.72448186 74.36427563 45.54318291 C74.37027265 48.20905958 74.36927567 50.87488888 74.3684082 53.54077148 C74.37144003 55.4512795 74.37496156 57.3617868 74.37893677 59.27229309 C74.38682654 63.38978086 74.39197109 67.50725997 74.39522743 71.62475395 C74.4011418 78.14382954 74.41768796 84.66285064 74.43656921 91.18190002 C74.44290681 93.41510293 74.44923243 95.64830586 74.45554638 97.88150883 C74.45871219 99.00002708 74.461878 100.11854532 74.46513975 101.27095807 C74.50717956 116.44714912 74.54016926 131.62331517 74.55249023 146.79956055 C74.56088648 157.036392 74.58343751 167.27308884 74.6218459 177.50985295 C74.64155847 182.9233398 74.65402718 188.33662565 74.64901161 193.75015068 C74.64434457 198.84987666 74.65828253 203.94922256 74.68602371 209.04887199 C74.69290174 210.91235608 74.69309889 212.77587976 74.68582344 214.63936234 C74.63619969 228.78767999 75.74529871 240.68467674 84.73828125 252.27734375 C86.2265625 254.30078125 86.2265625 254.30078125 87.2265625 257.30078125 C89.05217164 258.35476112 89.05217164 258.35476112 91.2265625 259.30078125 C93.51332665 260.8185807 95.75974432 262.38651989 98.0078125 263.9609375 C100.14985005 265.25445666 101.81335449 265.76110134 104.2265625 266.30078125 C105.33263098 253.7830485 106.28663685 241.30087905 106.6640625 228.73828125 C107.65882874 199.61564216 111.15709699 170.11704066 133.31640625 148.98046875 C139.46407781 143.57454079 145.90943059 139.74540105 153.4140625 136.55078125 C154.05972168 136.26912109 154.70538086 135.98746094 155.37060547 135.69726562 C167.5253614 130.78258024 180.12887684 129.77087308 193.1015625 129.92578125 C193.80099976 129.93043396 194.50043701 129.93508667 195.22106934 129.93988037 C205.80821566 130.02226709 215.95747482 130.51289403 226.2265625 133.30078125 C227.01385742 133.51009277 227.80115234 133.7194043 228.61230469 133.93505859 C282.35271732 148.50995361 329.30748617 184.72025259 362.90332031 228.58349609 C364.16107656 230.21579452 365.43607464 231.83255931 366.71875 233.4453125 C373.7545405 242.38054165 380.07858542 251.73653694 386.2265625 261.30078125 C386.61666504 261.9055127 387.00676758 262.51024414 387.40869141 263.13330078 C431.53920489 332.23213353 452.48664926 419.11016694 465.6640625 501.61328125 C465.84367523 502.73479584 465.84367523 502.73479584 466.0269165 503.87896729 C469.26195137 524.29350442 470.63807815 544.50831056 470.6015625 565.17578125 C470.60135101 566.28852417 470.60113953 567.40126709 470.60092163 568.54772949 C470.56646465 586.78608506 469.58059616 604.34603173 466.2265625 622.30078125 C466.03932617 623.32864746 465.85208984 624.35651367 465.65917969 625.41552734 C460.43315777 653.34631285 451.63796454 680.23105806 438.2265625 705.30078125 C437.61296875 706.45707031 436.999375 707.61335937 436.3671875 708.8046875 C428.1155605 723.79059686 418.17238128 737.08726905 406.2265625 749.30078125 C405.12441406 750.49574219 405.12441406 750.49574219 404 751.71484375 C382.97160537 774.0033669 353.15234695 786.30086094 322.8125 787.23046875 C285.8440823 787.9446141 257.59302153 769.33235872 227.4765625 750.30078125 C205.08804531 736.23783589 183.96253975 729.78768321 157.87084961 726.17504883 C145.99723424 724.47251978 134.49646183 721.89157943 123.6640625 716.61328125 C122.95789795 716.27514404 122.2517334 715.93700684 121.52416992 715.58862305 C112.31750587 711.04187873 103.88246568 705.14005475 96.2265625 698.30078125 C96.2265625 697.64078125 96.2265625 696.98078125 96.2265625 696.30078125 C95.5665625 696.30078125 94.9065625 696.30078125 94.2265625 696.30078125 C60.80840504 664.87632068 51.13954064 614.96931844 47.53613281 571.35498047 C47.26711399 568.30456573 47.26711399 568.30456573 46.68945312 565.33569336 C46.17627832 561.97109632 46.16154956 558.83981839 46.2421875 555.4375 C46.25741455 554.78146286 46.2726416 554.12542572 46.28833008 553.44950867 C46.34251481 551.29542934 46.40794007 549.14194705 46.4765625 546.98828125 C46.49956421 546.24080627 46.52256592 545.4933313 46.54626465 544.72320557 C48.3619092 488.06159062 60.20079088 433.78507714 76.51556396 379.65994263 C77.31354637 377.01216041 78.10839028 374.36344621 78.90283203 371.71459961 C79.15582062 370.87110458 79.4088092 370.02760956 79.66946411 369.15855408 C79.85330658 368.54548904 80.03714905 367.93242401 80.2265625 367.30078125 C79.66937027 367.13003586 79.11217804 366.95929047 78.5381012 366.78337097 C73.15785584 365.07210224 68.24069801 362.98420506 63.25390625 360.3515625 C62.16463585 359.78709663 62.16463585 359.78709663 61.05335999 359.21122742 C58.75368113 358.01803285 56.45873887 356.8160634 54.1640625 355.61328125 C52.65462573 354.82684246 51.1448619 354.04103107 49.63476562 353.25585938 C48.89011551 352.86865723 48.14546539 352.48145508 47.37825012 352.08251953 C44.40023729 350.53554395 41.42095236 348.99104171 38.44052124 347.44873047 C36.95546044 346.67871865 35.47176883 345.90606082 33.9894104 345.13085938 C31.83858001 344.00798087 29.68185435 342.89727294 27.5234375 341.7890625 C26.88562851 341.45288406 26.24781952 341.11670563 25.59068298 340.77033997 C18.98170229 337.40750529 13.43586762 336.61473409 6.2265625 338.30078125 C-1.08390624 340.96466254 -7.92057444 344.64886029 -14.7734375 348.30078125 C-16.41857553 349.16018649 -18.06438702 350.01830402 -19.7109375 350.875 C-22.84376701 352.51168622 -25.9672958 354.16458558 -29.0859375 355.828125 C-36.57129467 359.8035336 -44.1770117 363.54340935 -51.7734375 367.30078125 C-50.41088016 373.68751759 -48.80894756 379.9524598 -47.015625 386.23046875 C-46.47013637 388.16203079 -45.92523832 390.09375969 -45.38085938 392.02563477 C-44.9563147 393.53034836 -44.9563147 393.53034836 -44.52319336 395.06546021 C-33.27325257 435.06625269 -24.45682149 474.81279639 -20.7734375 516.30078125 C-20.70141113 517.09129883 -20.62938477 517.88181641 -20.55517578 518.69628906 C-15.40228218 577.82471801 -23.13115279 647.17402775 -62.28710938 694.56689453 C-84.43487082 720.40352426 -111.44723076 732.03356121 -144.640625 737.41796875 C-170.87767722 741.70864646 -190.02560202 750.03070911 -212.66772461 763.5546875 C-220.52410763 768.21969427 -228.49373185 772.44183056 -236.7734375 776.30078125 C-237.75699219 776.76871094 -238.74054688 777.23664062 -239.75390625 777.71875 C-266.71601011 789.80521035 -300.12035933 791.68642765 -327.8984375 781.55078125 C-346.55735855 774.29591749 -362.0038249 763.63780896 -376.7734375 750.30078125 C-377.52367187 749.62402344 -378.27390625 748.94726562 -379.046875 748.25 C-415.34468279 713.65596686 -431.43168234 661.60116963 -439.32788086 613.65966797 C-439.74473597 611.1624602 -439.74473597 611.1624602 -440.7734375 608.30078125 C-443.92398405 576.30523073 -443.70166993 542.05730976 -438.7734375 510.30078125 C-438.54524015 508.78729776 -438.31722333 507.27378704 -438.08935547 505.76025391 C-432.39957382 468.38797181 -423.47043134 431.80820165 -413.7734375 395.30078125 C-413.47759766 394.17607422 -413.18175781 393.05136719 -412.87695312 391.89257812 C-397.65323324 334.29794556 -374.77009202 278.44244527 -337.7734375 231.30078125 C-337.25813477 230.64126465 -336.74283203 229.98174805 -336.21191406 229.30224609 C-328.23572273 219.14425965 -319.74182041 209.59013223 -310.7734375 200.30078125 C-310.27569824 199.78112793 -309.77795898 199.26147461 -309.26513672 198.72607422 C-302.82813007 192.02588502 -296.04879284 186.06597797 -288.7734375 180.30078125 C-287.62848803 179.35624813 -286.48534613 178.40952085 -285.34375 177.4609375 C-252.02625772 149.96071422 -211.32407403 130.21645303 -167.6484375 129.92578125 C-166.97551666 129.91774475 -166.30259583 129.90970825 -165.60928345 129.90142822 C-144.12578406 129.70696001 -121.8119976 135.17717522 -105.703125 150.25 C-83.11716668 174.25329578 -81.98038679 205.32165479 -80.09619141 236.55102539 C-79.27610773 251.5306979 -79.27610773 251.5306979 -76.7734375 266.30078125 C-64.1874142 259.4490583 -54.91500011 250.53795263 -50.20003319 236.60653019 C-49.57771098 233.24287974 -49.63048364 229.89905505 -49.63540649 226.49082947 C-49.63258521 225.69888028 -49.62976393 224.9069311 -49.62685716 224.09098345 C-49.61851682 221.43426228 -49.61717337 218.77758281 -49.61572266 216.12084961 C-49.61105389 214.21694827 -49.60591022 212.31304805 -49.60032654 210.40914917 C-49.58904605 206.30639183 -49.5806115 202.20364175 -49.57420731 198.10087395 C-49.56352195 191.60755081 -49.54327438 185.11427969 -49.52108765 178.62098694 C-49.4591855 160.15530792 -49.40519473 141.68963166 -49.37207031 123.22387695 C-49.35369922 113.02736759 -49.3247303 102.83094509 -49.2840656 92.63449961 C-49.26303416 87.24122962 -49.24754383 81.84806894 -49.24525833 76.45475578 C-49.24310385 71.37642951 -49.22715295 66.29833063 -49.20086861 61.2200737 C-49.19370409 59.36219984 -49.19156074 57.50429835 -49.19497108 55.6464138 C-49.21964625 39.64016879 -47.6380586 25.23232882 -36.1484375 13.05078125 C-25.42085815 2.91297967 -14.38961288 -0.0138472 0 0 Z M-228.7734375 206.30078125 C-229.72089844 206.75582031 -230.66835938 207.21085938 -231.64453125 207.6796875 C-256.38022195 220.29225429 -278.96878502 241.20168689 -295.37695312 263.41259766 C-296.86343706 265.42246947 -298.37334949 267.41359172 -299.8828125 269.40625 C-310.95501734 284.19808878 -320.38001164 299.9370896 -328.4609375 316.55078125 C-328.87110107 317.38327393 -329.28126465 318.2157666 -329.70385742 319.07348633 C-332.73388236 325.5118851 -335.94658769 332.71615566 -333.6484375 339.73828125 C-331.23249456 343.04006993 -329.32633013 344.69687856 -325.5234375 346.17578125 C-321.31252185 346.36718651 -318.18992146 345.71779667 -314.7734375 343.30078125 C-310.44979305 337.65319428 -307.64005833 331.0348722 -304.5234375 324.67578125 C-295.1706463 305.76235905 -283.03170993 287.95357514 -269.0234375 272.18237305 C-266.51169618 269.62966702 -266.51169618 269.62966702 -265.7734375 266.30078125 C-265.1959375 266.05328125 -264.6184375 265.80578125 -264.0234375 265.55078125 C-261.44403771 264.11778137 -259.71222158 262.51653449 -257.7734375 260.30078125 C-257.7734375 259.64078125 -257.7734375 258.98078125 -257.7734375 258.30078125 C-257.18433594 258.04296875 -256.59523438 257.78515625 -255.98828125 257.51953125 C-253.58893617 256.19925671 -252.18531784 254.81079819 -250.3359375 252.80078125 C-238.68572766 240.89167785 -224.26207108 232.24262093 -209.32885742 225.08935547 C-201.58258842 221.40856045 -201.58258842 221.40856045 -195.7734375 215.30078125 C-194.44409352 211.21779618 -194.7239707 208.83515607 -196.5234375 205.05078125 C-198.07807138 202.05753095 -198.83266963 201.26129316 -201.7734375 199.30078125 C-211.71847319 197.24632232 -220.16179584 202.00067561 -228.7734375 206.30078125 Z M168.2265625 233.30078125 C164.5998442 237.08868703 163.6552466 239.74294217 163.1640625 244.92578125 C163.09155273 245.60979004 163.01904297 246.29379883 162.94433594 246.99853516 C162.68837594 249.43120842 162.45673941 251.86553679 162.2265625 254.30078125 C158.33291499 294.49594882 150.78983023 334.08534072 137.32519531 372.23120117 C135.05561689 378.84538825 132.91862339 385.24965904 134.2265625 392.30078125 C136.94190299 396.02467678 139.72413208 398.22877401 144.2265625 399.30078125 C147.96321418 399.16967066 150.32631612 399.03201586 153.265625 396.64453125 C162.18328551 385.98597287 165.9850578 366.59918089 169.2265625 353.30078125 C169.69877236 351.46863489 170.17148466 349.636618 170.64453125 347.8046875 C188.66731235 290.68661679 188.66731235 290.68661679 185.2265625 234.30078125 C182.85427355 231.75904309 181.25081376 231.30706861 177.8515625 230.42578125 C173.59830936 230.27911735 171.74702118 230.9538088 168.2265625 233.30078125 Z M-366.7734375 665.30078125 C-368.86784347 668.73054673 -369.13313444 671.41060032 -368.55859375 675.42578125 C-362.2124035 698.66357242 -342.09972545 718.64711496 -321.7734375 730.30078125 C-313.99049831 734.57137498 -305.79711782 738.82766828 -296.70703125 736.8515625 C-293.77796665 735.79367487 -291.89102063 734.43353639 -289.8359375 732.11328125 C-288.06656617 727.42965126 -287.87584452 723.38768492 -289.8671875 718.7578125 C-292.30965998 715.60962563 -295.0618744 714.45317094 -298.6484375 712.98828125 C-320.19687516 703.50540342 -334.24691813 689.34702015 -345.8515625 669.11328125 C-348.26658091 665.57910797 -350.94485822 663.21507089 -354.7734375 661.30078125 C-360.0395725 660.70235682 -362.70392853 661.971183 -366.7734375 665.30078125 Z " fill="#DEAD60" transform="translate(497.7734375,88.69921875)"/>
<path d="M0 0 C1.01924561 0.24145752 1.01924561 0.24145752 2.05908203 0.48779297 C32.78346349 8.03298785 60.65336022 26.07955116 84 47 C84.54108398 47.4846875 85.08216797 47.969375 85.63964844 48.46875 C96.91814033 58.62931513 107.55118213 69.08355696 117 81 C117.9209046 82.10996227 118.84419811 83.21794568 119.76953125 84.32421875 C159.7943936 132.56663375 182.06609359 194.50569884 196.46807861 254.77478027 C197.0409139 257.17115763 197.61786694 259.56652597 198.19482422 261.96191406 C206.87133454 298.08172271 214.55669486 334.09478034 219 371 C219.1134375 371.89235352 219.226875 372.78470703 219.34375 373.70410156 C220.44715368 383.66231981 220.24400037 393.74414307 220.25 403.75 C220.25067474 404.75954742 220.25134949 405.76909485 220.25204468 406.80923462 C220.23649449 421.4425397 219.72315636 435.59150056 217 450 C216.63154308 452.13389578 216.26442928 454.26802378 215.8984375 456.40234375 C208.05608421 500.77551056 190.3276291 548.7817367 152.28222656 576.23974609 C133.07651424 589.4365322 112.62621857 595.52573699 89.296875 592.5234375 C67.54394213 588.47524596 48.91589253 576.06284595 30.75390625 564.109375 C4.83101864 547.07981651 -21.18513311 536.03166886 -52.3125 533 C-69.96977598 531.24388965 -85.41464031 525.64068119 -99 514 C-99.5775 513.56558594 -100.155 513.13117187 -100.75 512.68359375 C-128.02724792 491.53109825 -136.59449791 449.97916959 -140.69140625 417.765625 C-148.6343609 348.1120227 -129.28152236 278.38780086 -109.2258606 212.35295105 C-98.91227883 178.36158932 -89.55680045 144.3042043 -85 109 C-84.88962402 108.2044873 -84.77924805 107.40897461 -84.66552734 106.58935547 C-83.15170214 95.60637481 -82.78379773 84.63215564 -82.5 73.5625 C-81.28513506 26.38766856 -81.28513506 26.38766856 -65.5 10.125 C-47.8979918 -6.48452349 -22.19547848 -5.33051439 0 0 Z M-51 70 C-54.6267183 73.78790578 -55.5713159 76.44216092 -56.0625 81.625 C-56.13500977 82.30900879 -56.20751953 82.99301758 -56.28222656 83.69775391 C-56.53818656 86.13042717 -56.76982309 88.56475554 -57 91 C-60.89364751 131.19516757 -68.43673227 170.78455947 -81.90136719 208.93041992 C-84.17094561 215.544607 -86.30793911 221.94887779 -85 229 C-82.28465951 232.72389553 -79.50243042 234.92799276 -75 236 C-71.26334832 235.86888941 -68.90024638 235.73123461 -65.9609375 233.34375 C-57.04327699 222.68519162 -53.2415047 203.29839964 -50 190 C-49.52779014 188.16785364 -49.05507784 186.33583675 -48.58203125 184.50390625 C-30.55925015 127.38583554 -30.55925015 127.38583554 -34 71 C-36.37228895 68.45826184 -37.97574874 68.00628736 -41.375 67.125 C-45.62825314 66.9783361 -47.47954132 67.65302755 -51 70 Z " fill="#DEAD60" transform="translate(717,252)"/>
<path d="M0 0 C1.00439117 -0.00428513 2.00878235 -0.00857025 3.04360962 -0.01298523 C5.1563441 -0.01869676 7.26909823 -0.0192524 9.38183594 -0.01489258 C12.58563326 -0.01173445 15.78850408 -0.03522617 18.9921875 -0.06054688 C21.05729052 -0.06282062 23.12239598 -0.06352301 25.1875 -0.0625 C26.13056 -0.07170975 27.07362 -0.08091949 28.04525757 -0.09040833 C40.86409064 -0.00277114 52.86914032 4.15595243 62.4765625 12.80078125 C70.30846099 21.13327531 74.38449189 31.84594893 74.35786438 43.13523865 C74.35998009 43.92986025 74.36209581 44.72448186 74.36427563 45.54318291 C74.37027265 48.20905958 74.36927567 50.87488888 74.3684082 53.54077148 C74.37144003 55.4512795 74.37496156 57.3617868 74.37893677 59.27229309 C74.38682654 63.38978086 74.39197109 67.50725997 74.39522743 71.62475395 C74.4011418 78.14382954 74.41768796 84.66285064 74.43656921 91.18190002 C74.44290681 93.41510293 74.44923243 95.64830586 74.45554638 97.88150883 C74.45871219 99.00002708 74.461878 100.11854532 74.46513975 101.27095807 C74.50717956 116.44714912 74.54016926 131.62331517 74.55249023 146.79956055 C74.56088648 157.036392 74.58343751 167.27308884 74.6218459 177.50985295 C74.64155847 182.9233398 74.65402718 188.33662565 74.64901161 193.75015068 C74.64434457 198.84987666 74.65828253 203.94922256 74.68602371 209.04887199 C74.69290174 210.91235608 74.69309889 212.77587976 74.68582344 214.63936234 C74.63619969 228.78767999 75.74529871 240.68467674 84.73828125 252.27734375 C86.2265625 254.30078125 86.2265625 254.30078125 87.2265625 257.30078125 C89.05217164 258.35476112 89.05217164 258.35476112 91.2265625 259.30078125 C93.51332665 260.8185807 95.75974432 262.38651989 98.0078125 263.9609375 C100.14985005 265.25445666 101.81335449 265.76110134 104.2265625 266.30078125 C105.33263098 253.7830485 106.28663685 241.30087905 106.6640625 228.73828125 C107.65882874 199.61564216 111.15709699 170.11704066 133.31640625 148.98046875 C139.46407781 143.57454079 145.90943059 139.74540105 153.4140625 136.55078125 C154.05972168 136.26912109 154.70538086 135.98746094 155.37060547 135.69726562 C167.5253614 130.78258024 180.12887684 129.77087308 193.1015625 129.92578125 C193.80099976 129.93043396 194.50043701 129.93508667 195.22106934 129.93988037 C205.80821566 130.02226709 215.95747482 130.51289403 226.2265625 133.30078125 C227.01385742 133.51009277 227.80115234 133.7194043 228.61230469 133.93505859 C282.35271732 148.50995361 329.30748617 184.72025259 362.90332031 228.58349609 C364.16107656 230.21579452 365.43607464 231.83255931 366.71875 233.4453125 C373.7545405 242.38054165 380.07858542 251.73653694 386.2265625 261.30078125 C386.61666504 261.9055127 387.00676758 262.51024414 387.40869141 263.13330078 C431.53920489 332.23213353 452.48664926 419.11016694 465.6640625 501.61328125 C465.84367523 502.73479584 465.84367523 502.73479584 466.0269165 503.87896729 C469.26195137 524.29350442 470.63807815 544.50831056 470.6015625 565.17578125 C470.60135101 566.28852417 470.60113953 567.40126709 470.60092163 568.54772949 C470.56646465 586.78608506 469.58059616 604.34603173 466.2265625 622.30078125 C466.03932617 623.32864746 465.85208984 624.35651367 465.65917969 625.41552734 C460.43315777 653.34631285 451.63796454 680.23105806 438.2265625 705.30078125 C437.61296875 706.45707031 436.999375 707.61335937 436.3671875 708.8046875 C428.1155605 723.79059686 418.17238128 737.08726905 406.2265625 749.30078125 C405.12441406 750.49574219 405.12441406 750.49574219 404 751.71484375 C382.97160537 774.0033669 353.15234695 786.30086094 322.8125 787.23046875 C285.8440823 787.9446141 257.59302153 769.33235872 227.4765625 750.30078125 C205.08804531 736.23783589 183.96253975 729.78768321 157.87084961 726.17504883 C145.99723424 724.47251978 134.49646183 721.89157943 123.6640625 716.61328125 C122.95789795 716.27514404 122.2517334 715.93700684 121.52416992 715.58862305 C112.31750587 711.04187873 103.88246568 705.14005475 96.2265625 698.30078125 C96.2265625 697.64078125 96.2265625 696.98078125 96.2265625 696.30078125 C95.5665625 696.30078125 94.9065625 696.30078125 94.2265625 696.30078125 C60.80840504 664.87632068 51.13954064 614.96931844 47.53613281 571.35498047 C47.26711399 568.30456573 47.26711399 568.30456573 46.68945312 565.33569336 C46.17627832 561.97109632 46.16154956 558.83981839 46.2421875 555.4375 C46.25741455 554.78146286 46.2726416 554.12542572 46.28833008 553.44950867 C46.34251481 551.29542934 46.40794007 549.14194705 46.4765625 546.98828125 C46.49956421 546.24080627 46.52256592 545.4933313 46.54626465 544.72320557 C48.3619092 488.06159062 60.20079088 433.78507714 76.51556396 379.65994263 C77.31354637 377.01216041 78.10839028 374.36344621 78.90283203 371.71459961 C79.15582062 370.87110458 79.4088092 370.02760956 79.66946411 369.15855408 C79.85330658 368.54548904 80.03714905 367.93242401 80.2265625 367.30078125 C79.66937027 367.13003586 79.11217804 366.95929047 78.5381012 366.78337097 C73.15785584 365.07210224 68.24069801 362.98420506 63.25390625 360.3515625 C62.16463585 359.78709663 62.16463585 359.78709663 61.05335999 359.21122742 C58.75368113 358.01803285 56.45873887 356.8160634 54.1640625 355.61328125 C52.65462573 354.82684246 51.1448619 354.04103107 49.63476562 353.25585938 C48.89011551 352.86865723 48.14546539 352.48145508 47.37825012 352.08251953 C44.40023729 350.53554395 41.42095236 348.99104171 38.44052124 347.44873047 C36.95546044 346.67871865 35.47176883 345.90606082 33.9894104 345.13085938 C31.83858001 344.00798087 29.68185435 342.89727294 27.5234375 341.7890625 C26.88562851 341.45288406 26.24781952 341.11670563 25.59068298 340.77033997 C18.98170229 337.40750529 13.43586762 336.61473409 6.2265625 338.30078125 C-1.08390624 340.96466254 -7.92057444 344.64886029 -14.7734375 348.30078125 C-16.41857553 349.16018649 -18.06438702 350.01830402 -19.7109375 350.875 C-22.84376701 352.51168622 -25.9672958 354.16458558 -29.0859375 355.828125 C-36.57129467 359.8035336 -44.1770117 363.54340935 -51.7734375 367.30078125 C-50.41088016 373.68751759 -48.80894756 379.9524598 -47.015625 386.23046875 C-46.47013637 388.16203079 -45.92523832 390.09375969 -45.38085938 392.02563477 C-44.9563147 393.53034836 -44.9563147 393.53034836 -44.52319336 395.06546021 C-33.27325257 435.06625269 -24.45682149 474.81279639 -20.7734375 516.30078125 C-20.70141113 517.09129883 -20.62938477 517.88181641 -20.55517578 518.69628906 C-15.40228218 577.82471801 -23.13115279 647.17402775 -62.28710938 694.56689453 C-84.43487082 720.40352426 -111.44723076 732.03356121 -144.640625 737.41796875 C-170.87767722 741.70864646 -190.02560202 750.03070911 -212.66772461 763.5546875 C-220.52410763 768.21969427 -228.49373185 772.44183056 -236.7734375 776.30078125 C-237.75699219 776.76871094 -238.74054688 777.23664062 -239.75390625 777.71875 C-266.71601011 789.80521035 -300.12035933 791.68642765 -327.8984375 781.55078125 C-346.55735855 774.29591749 -362.0038249 763.63780896 -376.7734375 750.30078125 C-377.52367187 749.62402344 -378.27390625 748.94726562 -379.046875 748.25 C-415.34468279 713.65596686 -431.43168234 661.60116963 -439.32788086 613.65966797 C-439.74473597 611.1624602 -439.74473597 611.1624602 -440.7734375 608.30078125 C-443.92398405 576.30523073 -443.70166993 542.05730976 -438.7734375 510.30078125 C-438.54524015 508.78729776 -438.31722333 507.27378704 -438.08935547 505.76025391 C-432.39957382 468.38797181 -423.47043134 431.80820165 -413.7734375 395.30078125 C-413.47759766 394.17607422 -413.18175781 393.05136719 -412.87695312 391.89257812 C-397.65323324 334.29794556 -374.77009202 278.44244527 -337.7734375 231.30078125 C-337.25813477 230.64126465 -336.74283203 229.98174805 -336.21191406 229.30224609 C-328.23572273 219.14425965 -319.74182041 209.59013223 -310.7734375 200.30078125 C-310.27569824 199.78112793 -309.77795898 199.26147461 -309.26513672 198.72607422 C-302.82813007 192.02588502 -296.04879284 186.06597797 -288.7734375 180.30078125 C-287.62848803 179.35624813 -286.48534613 178.40952085 -285.34375 177.4609375 C-252.02625772 149.96071422 -211.32407403 130.21645303 -167.6484375 129.92578125 C-166.97551666 129.91774475 -166.30259583 129.90970825 -165.60928345 129.90142822 C-144.12578406 129.70696001 -121.8119976 135.17717522 -105.703125 150.25 C-83.11716668 174.25329578 -81.98038679 205.32165479 -80.09619141 236.55102539 C-79.27610773 251.5306979 -79.27610773 251.5306979 -76.7734375 266.30078125 C-64.1874142 259.4490583 -54.91500011 250.53795263 -50.20003319 236.60653019 C-49.57771098 233.24287974 -49.63048364 229.89905505 -49.63540649 226.49082947 C-49.63258521 225.69888028 -49.62976393 224.9069311 -49.62685716 224.09098345 C-49.61851682 221.43426228 -49.61717337 218.77758281 -49.61572266 216.12084961 C-49.61105389 214.21694827 -49.60591022 212.31304805 -49.60032654 210.40914917 C-49.58904605 206.30639183 -49.5806115 202.20364175 -49.57420731 198.10087395 C-49.56352195 191.60755081 -49.54327438 185.11427969 -49.52108765 178.62098694 C-49.4591855 160.15530792 -49.40519473 141.68963166 -49.37207031 123.22387695 C-49.35369922 113.02736759 -49.3247303 102.83094509 -49.2840656 92.63449961 C-49.26303416 87.24122962 -49.24754383 81.84806894 -49.24525833 76.45475578 C-49.24310385 71.37642951 -49.22715295 66.29833063 -49.20086861 61.2200737 C-49.19370409 59.36219984 -49.19156074 57.50429835 -49.19497108 55.6464138 C-49.21964625 39.64016879 -47.6380586 25.23232882 -36.1484375 13.05078125 C-25.42085815 2.91297967 -14.38961288 -0.0138472 0 0 Z M-262.18066406 199.03271484 C-263.66013468 200.21057664 -265.14997522 201.37538086 -266.640625 202.5390625 C-274.57237094 208.96651179 -281.79268945 216.10787899 -289.0234375 223.30078125 C-289.79405014 224.06349335 -289.79405014 224.06349335 -290.58023071 224.84161377 C-297.44601253 231.65297163 -303.81182984 238.66708458 -309.7734375 246.30078125 C-310.72669922 247.51942871 -310.72669922 247.51942871 -311.69921875 248.76269531 C-323.59769844 264.15147956 -334.3489407 280.03664461 -343.60351562 297.15039062 C-344.823896 299.39352717 -346.07221116 301.61984227 -347.3203125 303.84765625 C-358.480373 324.09807848 -366.7768443 345.79707689 -374.1484375 367.67578125 C-374.51654541 368.76431396 -374.88465332 369.85284668 -375.26391602 370.97436523 C-382.15016949 392.03215083 -387.20921619 413.68628553 -392.2734375 435.23828125 C-392.55379852 436.42779388 -392.83415955 437.61730652 -393.12301636 438.84286499 C-399.77451499 467.11616411 -406.04624104 495.46967745 -409.7734375 524.30078125 C-409.89058105 525.18330566 -410.00772461 526.06583008 -410.12841797 526.97509766 C-413.65367447 554.81571921 -413.62016756 584.66188525 -408.7734375 612.30078125 C-408.49198394 614.05595695 -408.21073423 615.81116536 -407.9296875 617.56640625 C-403.37039161 644.67000817 -394.57812665 671.49175266 -380.7734375 695.30078125 C-380.19980469 696.29207031 -379.62617188 697.28335938 -379.03515625 698.3046875 C-362.03359732 726.1807519 -336.8509301 748.31567892 -304.7734375 756.30078125 C-273.06000813 761.9077727 -246.16815862 747.83716135 -219.7734375 732.23828125 C-209.68972471 726.29667813 -199.56192393 720.85092865 -188.7734375 716.30078125 C-187.77691162 715.86862305 -187.77691162 715.86862305 -186.76025391 715.42773438 C-175.391076 710.63061289 -163.57139579 709.09047646 -151.44125366 707.42703247 C-129.09222836 704.35592215 -111.87164639 698.70242368 -94.7734375 683.30078125 C-93.99355469 682.60339844 -93.21367187 681.90601563 -92.41015625 681.1875 C-63.62131535 653.9897522 -52.24279634 606.85599671 -50.66642761 568.71138 C-50.61015647 565.99213694 -50.58310632 563.27448099 -50.5703125 560.5546875 C-50.56329819 559.55419373 -50.55628387 558.55369995 -50.54905701 557.52288818 C-50.53161744 554.30297302 -50.52520222 551.08324195 -50.5234375 547.86328125 C-50.52276276 546.76164642 -50.52208801 545.6600116 -50.52139282 544.5249939 C-50.53758646 527.8901936 -51.17187403 511.75495973 -53.7734375 495.30078125 C-54.10590664 492.997459 -54.43791915 490.6940708 -54.76953125 488.390625 C-61.37788043 444.33694206 -74.32382509 401.56962768 -87.03027344 358.97216797 C-91.83208595 342.86925658 -96.15781742 326.7164074 -99.7734375 310.30078125 C-99.92403625 309.61802124 -100.07463501 308.93526123 -100.22979736 308.23181152 C-105.39494489 284.71995802 -109.11910205 261.47659232 -110.28515625 237.38671875 C-110.32719681 236.52320801 -110.36923737 235.65969727 -110.41255188 234.77001953 C-110.61599966 230.5051238 -110.80069705 226.24068804 -110.95239258 221.97363281 C-111.70950542 202.5957031 -114.87721471 185.30863711 -129.5859375 171.55078125 C-168.33895799 139.47931602 -229.97115297 173.37380592 -262.18066406 199.03271484 Z M169.2265625 163.30078125 C168.51886719 163.55601562 167.81117188 163.81125 167.08203125 164.07421875 C155.8976947 168.88326287 147.28208348 179.26933799 142.4765625 190.17578125 C137.28980167 203.47516798 137.21928686 217.40929864 136.98779297 231.53491211 C136.11505577 282.69262048 123.60970721 331.07530494 108.7265625 379.73828125 C88.5030718 445.86945733 69.83489327 516.6706614 79.2265625 586.30078125 C79.35015137 587.22084961 79.47374023 588.14091797 79.60107422 589.08886719 C83.85120908 619.26740056 93.50095739 651.71145639 116.2265625 673.30078125 C116.690625 673.82027344 117.1546875 674.33976563 117.6328125 674.875 C131.71501887 690.2342692 151.68305578 694.57468538 171.46484375 696.9375 C205.23396641 701.02094114 230.99596805 714.700613 259.1640625 733.11328125 C283.42109487 748.9489717 308.59000944 760.88310587 338.21240234 754.91357422 C367.92012372 748.17524233 389.56816132 726.52151352 405.6328125 701.609375 C421.08040446 677.01479554 429.33327678 649.53818579 434.9140625 621.23828125 C435.11660645 620.2229834 435.31915039 619.20768555 435.52783203 618.16162109 C438.6767522 601.57660785 439.6055487 585.21859848 439.5390625 568.36328125 C439.53690735 567.37433868 439.5347522 566.38539612 439.53253174 565.3664856 C439.4771349 549.4683949 438.6843119 534.02904166 436.2265625 518.30078125 C435.93652344 516.34374268 435.93652344 516.34374268 435.640625 514.34716797 C431.98783282 489.75014497 426.85769809 465.51309324 421.2265625 441.30078125 C421.02313232 440.42389648 420.81970215 439.54701172 420.61010742 438.64355469 C415.25775118 415.61514209 409.49666886 392.80765686 402.2265625 370.30078125 C401.87271484 369.19814941 401.51886719 368.09551758 401.15429688 366.95947266 C386.75786619 322.55293212 365.88346296 280.49295406 336.2265625 244.30078125 C335.76701172 243.73681641 335.30746094 243.17285156 334.83398438 242.59179688 C302.93799106 203.68667012 255.94360412 166.21356995 204.32128906 160.46850586 C192.61861397 159.53147348 180.35555094 159.17893368 169.2265625 163.30078125 Z " fill="#4E4A44" transform="translate(497.7734375,88.69921875)"/>
<path d="M0 0 C0.88731812 -0.00145523 1.77463623 -0.00291046 2.68884277 -0.00440979 C4.55805762 -0.0027556 6.42728676 0.00875175 8.29638672 0.02954102 C11.14740217 0.05850387 13.99655672 0.0501382 16.84765625 0.03710938 C18.66927981 0.0433474 20.49089754 0.05173884 22.3125 0.0625 C23.15953491 0.05956436 24.00656982 0.05662872 24.87927246 0.05360413 C29.86156394 0.13249772 33.35701148 0.70822941 37.65625 3.49609375 C41.95095092 9.06759765 42.80393516 13.23167244 42.78755188 20.08294678 C42.79072545 21.25310487 42.79072545 21.25310487 42.79396313 22.44690251 C42.79997043 25.06975889 42.79896243 27.69256725 42.7980957 30.31542969 C42.80112693 32.19298891 42.80464829 34.0705474 42.80862427 35.94810486 C42.81651998 39.99794344 42.82166088 44.04777319 42.82491493 48.0976181 C42.83082702 54.51214793 42.84737204 60.92662231 42.86625671 67.34112549 C42.87259459 69.53841778 42.87892021 71.73571011 42.88523388 73.93300247 C42.88839969 75.03366877 42.8915655 76.13433507 42.89482725 77.26835489 C42.93686099 92.20249348 42.96984332 107.13660703 42.98217773 122.07080078 C42.99058099 132.14174115 43.01315994 142.21254494 43.0515334 152.28341699 C43.07122678 157.6086749 43.08372123 162.93372894 43.07869911 168.25902557 C43.07402297 173.27913123 43.08801883 178.29885193 43.11571121 183.31888008 C43.12257483 185.15088449 43.12280228 186.98292912 43.11551094 188.81493187 C43.03708698 210.75415282 48.80252073 227.14114926 62.65625 244.49609375 C63.30207031 245.34558594 63.94789063 246.19507813 64.61328125 247.0703125 C73.28605615 257.36819628 85.96007706 264.18711052 97.65625 270.49609375 C97.15424549 278.24254269 95.60511945 285.49478492 93.65625 292.99609375 C93.38296875 294.07890625 93.1096875 295.16171875 92.828125 296.27734375 C90.81154337 304.18550702 90.81154337 304.18550702 89.65625 306.49609375 C83.57292511 306.00339471 78.79726296 303.30780561 73.46875 300.55859375 C72.50275879 300.06858887 71.53676758 299.57858398 70.54150391 299.07373047 C64.97545305 296.23922659 59.44763509 293.33634228 53.93457031 290.40039062 C35.38948696 280.52876966 16.9005779 272.55193227 -4.34375 277.99609375 C-9.3211521 279.64963394 -13.96365462 281.66789765 -18.63671875 284.0546875 C-19.32154831 284.40063461 -20.00637787 284.74658173 -20.71195984 285.10301208 C-25.98261565 287.77588589 -31.22131083 290.50949985 -36.45703125 293.25 C-38.75119431 294.44837411 -41.04537229 295.64671962 -43.33959961 296.8449707 C-44.90892245 297.66709146 -46.47658611 298.49238581 -48.04272461 299.32055664 C-50.34279542 300.53543434 -52.64913282 301.73757504 -54.95703125 302.9375 C-55.6569368 303.31129288 -56.35684235 303.68508575 -57.07795715 304.07020569 C-58.79556759 304.95600957 -60.56700124 305.73583196 -62.34375 306.49609375 C-63.33375 306.16609375 -64.32375 305.83609375 -65.34375 305.49609375 C-66.2004777 303.14967994 -66.84555414 300.95659467 -67.421875 298.5390625 C-67.59757019 297.8396907 -67.77326538 297.14031891 -67.95428467 296.41975403 C-68.32342032 294.93754497 -68.68614355 293.45372658 -69.04296875 291.96850586 C-69.5900116 289.69910249 -70.16049183 287.43657454 -70.734375 285.17382812 C-71.08996142 283.73342266 -71.44417337 282.29267705 -71.796875 280.8515625 C-72.05298553 279.83729439 -72.05298553 279.83729439 -72.31427002 278.80253601 C-73.7843149 272.58159122 -73.7843149 272.58159122 -72.34375 269.49609375 C-70.183626 268.05700015 -68.13791645 266.86283265 -65.84375 265.68359375 C-59.25025573 262.11747569 -52.93609341 258.27979686 -47.73046875 252.796875 C-46.34375 251.49609375 -46.34375 251.49609375 -44.34375 251.49609375 C-44.09109375 250.92117188 -43.8384375 250.34625 -43.578125 249.75390625 C-42.19560406 247.22511794 -40.57934376 245.45673681 -38.59375 243.37109375 C-23.47750258 226.64208213 -19.87575853 207.17430758 -19.97485352 185.41455078 C-19.97238083 183.52253502 -19.96853769 181.63052064 -19.96343994 179.73851013 C-19.95515086 175.68987559 -19.95586737 171.64138195 -19.96362495 167.59274673 C-19.9752724 161.18797625 -19.96299365 154.78338465 -19.94700623 148.37863159 C-19.91093045 132.48125254 -19.90458569 116.58387872 -19.90710449 100.6864624 C-19.90881591 88.30736508 -19.90171004 75.9284152 -19.86712593 63.5493592 C-19.85034517 57.18450981 -19.8521138 50.82002068 -19.86794865 44.45517278 C-19.87374559 40.49855201 -19.86300665 36.54210223 -19.84770203 32.58551216 C-19.84397682 30.75335204 -19.84708091 28.92116318 -19.85757256 27.08902931 C-19.8709571 24.58472888 -19.85972341 22.08167384 -19.84254456 19.5774231 C-19.85235133 18.85572752 -19.86215811 18.13403195 -19.87226206 17.39046681 C-19.79493002 11.92572743 -18.33922751 8.90815579 -15.34375 4.49609375 C-10.44311778 0.07251026 -6.28362535 -0.0833379 0 0 Z " fill="#DEAD60" transform="translate(499.34375,119.50390625)"/>
<path d="M0 0 C9.58301708 6.28117626 16.47503125 14.49006021 19.390625 25.796875 C21.06143941 37.49257588 19.63828848 48.47115906 12.5 58.125 C5.33376953 66.52363953 -2.21584598 72.16917512 -13.25 74.3125 C-26.69733408 75.3725376 -37.5383664 73.30383658 -48.21484375 64.390625 C-56.21302696 56.2235742 -60.32002398 46.67131194 -60.625 35.375 C-60.33847249 24.26012044 -57.06196241 13.95896265 -48.91796875 6.046875 C-34.18744023 -6.17199658 -17.29839151 -9.751935 0 0 Z " fill="#BD7E57" transform="translate(884.25,637.6875)"/>
<path d="M0 0 C1.42263915 1.21940499 2.81980747 2.46927058 4.1875 3.75 C4.82558594 4.33523438 5.46367188 4.92046875 6.12109375 5.5234375 C13.22234928 12.76213669 16.43604627 21.89028361 16.6875 31.9375 C16.15277281 44.63023485 11.37409557 54.42456359 2.16796875 63.18359375 C-7.48869663 70.82131134 -18.79457104 72.86148476 -30.8125 71.75 C-42.49395154 69.257957 -50.76578716 63.27113108 -57.8125 53.75 C-63.66192652 44.21962596 -65.11386112 34.21846433 -63.1875 23.25 C-60.97379102 14.61189084 -56.09435534 6.02524356 -48.8125 0.75 C-33.14762659 -8.35280859 -15.55310797 -11.51984438 0 0 Z " fill="#4D4844" transform="translate(855.8125,559.25)"/>
<path d="M0 0 C8.78329936 6.81878074 13.81332057 15.58706189 16.1875 26.375 C17.35909081 37.55017385 13.99392394 48.52366361 7.1875 57.375 C0.10078188 65.37567978 -9.92102898 70.81896139 -20.6953125 71.578125 C-33.0905548 71.75733332 -43.36940707 68.97821085 -52.8203125 60.59375 C-61.44436433 51.48436192 -64.41839221 40.59131034 -64.15625 28.33984375 C-63.28267252 18.26392172 -58.12107457 9.26209984 -50.74609375 2.47265625 C-35.43686615 -10.1208475 -16.57950676 -11.1889021 0 0 Z " fill="#4D4844" transform="translate(391.8125,559.625)"/>
<path d="M0 0 C7.09227461 6.03312585 12.30099683 14.567784 14.06640625 23.7578125 C14.93661411 35.62687708 14.23147384 46.24186197 6.25634766 55.60888672 C1.77212208 60.54928987 -2.87549876 64.85603591 -8.93359375 67.7578125 C-10.06796875 68.3559375 -11.20234375 68.9540625 -12.37109375 69.5703125 C-22.35690584 72.9709926 -34.55531906 71.65886292 -44 67.4140625 C-54.39962589 61.5426359 -59.64267567 53.62288948 -63.93359375 42.7578125 C-66.5909331 32.72244859 -65.75276225 21.94258069 -60.93359375 12.7578125 C-54.71579365 3.03095689 -45.94499873 -4.91571367 -34.54296875 -7.859375 C-21.64664075 -9.75135126 -10.63298521 -7.5705333 0 0 Z " fill="#BC7E57" transform="translate(186.93359375,641.2421875)"/>
<path d="M0 0 C3.83751127 2.74107948 6.2138812 5.42968167 8.6875 9.4375 C9.26886719 10.36433594 9.85023438 11.29117188 10.44921875 12.24609375 C15.97289194 22.05513556 16.79656662 34.46318392 14.19921875 45.359375 C10.15537961 56.08736061 2.94089207 63.83647317 -7.30859375 68.8828125 C-18.01050432 73.325115 -29.21564247 73.23502507 -40 69 C-43.19754355 67.23019682 -46.08891308 65.20250592 -49 63 C-50.3303125 62.13375 -50.3303125 62.13375 -51.6875 61.25 C-59.40839652 53.73777636 -63.82175525 42.46276077 -64.25 31.8125 C-64.07883042 21.47385738 -59.68982679 12.00405304 -52.66796875 4.51171875 C-36.74520793 -10.43268503 -18.26368465 -11.56700028 0 0 Z " fill="#BC7E57" transform="translate(653,641)"/>
<path d="M0 0 C1.38516832 1.21555587 2.74104275 2.4654697 4.0625 3.75 C4.69800781 4.34683594 5.33351563 4.94367187 5.98828125 5.55859375 C13.33203407 13.1225019 16.5237958 21.88961702 16.625 32.3125 C16.41458915 43.65339413 12.96250001 52.49090909 5.0625 60.75 C-4.11185716 69.36161778 -14.54020307 73.12865499 -27.03515625 72.9609375 C-37.97260654 72.16602187 -46.92191646 66.55988247 -54.37109375 58.73046875 C-61.23859192 50.04762194 -63.91374759 39.6461828 -62.9375 28.75 C-61.65079621 19.90683577 -58.62783053 13.59506288 -52.9375 6.75 C-52.42445313 6.10160156 -51.91140625 5.45320312 -51.3828125 4.78515625 C-38.76387334 -9.56025469 -15.11136182 -11.30764575 0 0 Z " fill="#BC7E57" transform="translate(421.9375,639.25)"/>
<path d="M0 0 C7.7447857 6.35394517 12.32992979 14.13511176 15.06640625 23.6953125 C16.23446246 35.79691808 14.57359612 46.31497373 6.75 55.85546875 C-1.04688309 64.37596048 -10.17210377 69.98649169 -21.87890625 70.93359375 C-33.3660864 71.20172203 -43.09184529 68.21664862 -51.93359375 60.6953125 C-61.29423271 50.87127557 -64.44403125 40.3535316 -64.20703125 27.0703125 C-63.78819621 17.41637209 -59.69340631 9.50653048 -52.93359375 2.6953125 C-36.79972613 -10.63717618 -17.3998626 -12.38845316 0 0 Z " fill="#4E4945" transform="translate(681.93359375,560.3046875)"/>
<path d="M0 0 C1.40596673 1.21506483 2.78242989 2.46523134 4.125 3.75 C4.77339844 4.37003906 5.42179687 4.99007812 6.08984375 5.62890625 C14.04577344 13.95487919 16.51587039 23.99133142 16.40234375 35.23046875 C15.50743509 46.58698566 10.42498321 54.91810381 2.25 62.5 C-7.20891384 70.39441668 -17.72895484 72.72672477 -29.875 71.75 C-39.61411005 70.14384992 -48.56166385 65.01491084 -54.8125 57.375 C-62.20458554 47.00480805 -64.19090145 36.27063666 -62.875 23.75 C-60.17233349 12.38561692 -52.83886199 4.15816306 -43.3125 -2.25 C-29.92017403 -10.13329437 -12.64858992 -9.38443768 0 0 Z " fill="#4D4844" transform="translate(216.875,559.25)"/>
<path d="M0 0 C0.70310303 -0.00671722 1.40620605 -0.01343445 2.13061523 -0.02035522 C4.44465282 -0.0392846 6.75839968 -0.04325656 9.07250977 -0.04541016 C10.68766904 -0.05184075 12.30282716 -0.05856931 13.91798401 -0.06558228 C17.29967957 -0.07754174 20.68127307 -0.08126439 24.06298828 -0.08007812 C28.38847416 -0.07987481 32.71330394 -0.10719515 37.0386343 -0.14162254 C40.37330614 -0.16389692 43.70782007 -0.16791554 47.04255867 -0.16685867 C48.63691536 -0.16921312 50.23127649 -0.17802791 51.82555962 -0.19352341 C54.0586491 -0.21319895 56.29032349 -0.20734113 58.5234375 -0.1953125 C60.4260862 -0.19958755 60.4260862 -0.19958755 62.36717224 -0.20394897 C66.48046368 0.38401919 68.61631968 1.69564425 71.82641602 4.29052734 C75.77327657 10.21081817 74.4525576 19.04597548 73.13891602 25.85302734 C69.86730271 37.41272771 63.34893106 47.66207675 52.96313477 54.05224609 C40.83575198 60.41642537 28.61143721 62.43887644 15.20141602 58.72802734 C3.19885354 54.59671055 -5.91851346 47.70644324 -11.92358398 36.47802734 C-16.03754422 27.58481297 -18.71282808 18.14456663 -17.17358398 8.29052734 C-15.56120405 4.86007292 -13.35305208 2.88903204 -9.94615173 1.1602478 C-6.52696657 0.0876914 -3.58483343 0.02155927 0 0 Z " fill="#4D4844" transform="translate(252.173583984375,636.70947265625)"/>
<path d="M0 0 C4.76874603 1.8853182 7.52465185 5.6286405 10 10 C10 10.66 10 11.32 10 12 C10.515625 12.2475 11.03125 12.495 11.5625 12.75 C13.52155843 13.75464535 15.42775359 14.8620399 17.3125 16 C24.25460243 19.95007102 31.56247192 21.23130801 39.36328125 19.46484375 C46.90926431 17.14397837 52.06087411 13.27362775 57.25 7.3125 C62.61860007 1.17114689 62.61860007 1.17114689 66.20703125 0.7265625 C73.29132231 0.45041322 73.29132231 0.45041322 77.0625 3.375 C80.16678579 7.58080655 80.15287412 9.64323233 79.4921875 14.703125 C78.74433762 18.1930911 77.24748835 20.23386049 75 23 C74.4534375 23.69996094 73.906875 24.39992188 73.34375 25.12109375 C65.33165577 34.8571017 54.31843464 41.27510697 42 44 C26.01338142 45.47972216 12.90545174 42.9857773 0 33 C-0.69867187 32.46503906 -1.39734375 31.93007813 -2.1171875 31.37890625 C-8.30235257 26.32574309 -13.74878363 20.41991325 -15.125 12.3125 C-15.35887804 7.8532253 -13.9611045 5.37236901 -11 2 C-7.27914129 -0.48057247 -4.30976972 -0.52496213 0 0 Z " fill="#4B4643" transform="translate(713,631)"/>
<path d="M0 0 C2.87988281 1.04711914 2.87988281 1.04711914 5.828125 2.47265625 C6.95847168 3.01744629 8.08881836 3.56223633 9.25341797 4.12353516 C17.09283632 8.02692037 24.86160898 12.06673845 32.62890625 16.11108398 C42.64687259 21.32151539 52.72359686 26.31802473 63 31 C61.13883034 40.58992749 61.13883034 40.58992749 59.9375 45.1875 C58.9447047 48.91172133 58.9447047 48.91172133 58.5625 52.4375 C57.86912881 56.82885089 56.50402895 60.828448 55 65 C54.34 65 53.68 65 53 65 C52.87882813 65.64066406 52.75765625 66.28132813 52.6328125 66.94140625 C51.64320773 72.04928933 50.51489049 77.02250269 49 82 C48.67 82 48.34 82 48 82 C48.54402052 73.51140395 50.94414457 65.66311486 53.375 57.5625 C53.77933573 56.19486523 54.18298599 54.82702762 54.5859375 53.45898438 C55.71417541 49.63635666 56.85544708 45.81777531 58 42 C58.31614258 40.94409668 58.63228516 39.88819336 58.95800781 38.80029297 C59.63746798 36.53316354 60.31831416 34.26646071 61 32 C60.44280777 31.82925461 59.88561554 31.65850922 59.3115387 31.48258972 C53.93129334 29.77132099 49.01413551 27.68342381 44.02734375 25.05078125 C43.30116348 24.67447067 42.57498322 24.2981601 41.82679749 23.91044617 C39.52711863 22.7172516 37.23217637 21.51528215 34.9375 20.3125 C33.42806323 19.52606121 31.9182994 18.74024982 30.40820312 17.95507812 C29.66373932 17.56786591 28.91927551 17.18065369 28.1522522 16.78170776 C25.17132471 15.23364712 22.18732269 13.69154323 19.20379639 12.14849854 C17.00480832 11.00250583 14.81695824 9.83705687 12.62939453 8.66943359 C5.78398061 5.06226849 -0.091335 2 -8 2 C-8.6909375 1.98839844 -9.381875 1.97679687 -10.09375 1.96484375 C-11.72905093 1.94213124 -13.3649114 1.96521088 -15 2 C-10.20034252 -1.19977166 -5.60212958 -0.65789995 0 0 Z " fill="#39373A" transform="translate(517,424)"/>
<path d="M0 0 C0.33 0 0.66 0 1 0 C0.85552937 3.00007095 0.70947933 6.00005163 0.5625 9 C0.51810791 9.92063232 0.47371582 10.84126465 0.42797852 11.78979492 C0.17228571 16.97240502 -0.15966438 22.13893974 -0.5625 27.3125 C-1.91651731 49.37632304 -1.02256061 70.87130725 1.63623047 92.79052734 C2.20974909 97.85057821 2.61438345 102.92261961 3 108 C2.34 107.67 1.68 107.34 1 107 C0.40234375 104.3828125 0.40234375 104.3828125 -0.0625 101.125 C-0.52887719 97.92588374 -0.97655262 95.07034214 -2 92 C-3.29976307 78.95832693 -3.18624651 65.80028833 -3.18530273 52.70922852 C-3.18748524 49.33531997 -3.20570343 45.96174158 -3.22460938 42.58789062 C-3.29689972 14.39594052 -3.29689972 14.39594052 -1 1 C-0.67 0.67 -0.34 0.34 0 0 Z " fill="#303036" transform="translate(59,605)"/>
<path d="M0 0 C3.30029939 1.6501497 4.06705504 5.31121195 5.5 8.5625 C16.17691708 31.95863802 32.45651166 53.30339776 52 70 C51.67 70.66 51.34 71.32 51 72 C29.29687656 52.49090816 11.43002716 30.17541024 0 3 C0 2.01 0 1.02 0 0 Z " fill="#37363A" transform="translate(80,776)"/>
<path d="M0 0 C0.99 0.495 0.99 0.495 2 1 C2.57836914 3.69287109 2.57836914 3.69287109 3.03515625 7.2734375 C3.20466797 8.57410156 3.37417969 9.87476563 3.54882812 11.21484375 C3.72008591 12.60155832 3.89130966 13.9882771 4.0625 15.375 C4.23683779 16.72275899 4.41195933 18.07041684 4.58789062 19.41796875 C5.08664245 23.27557106 5.54752657 27.13669294 6 31 C6.11255127 31.90951416 6.22510254 32.81902832 6.34106445 33.75610352 C7.33906936 42.86874426 7.1089552 52.03407198 7.0625 61.1875 C7.05747379 62.91992058 7.05291287 64.65234257 7.04882812 66.38476562 C7.03791402 70.58987928 7.02071152 74.79492366 7 79 C6.67 79 6.34 79 6 79 C5.67 66.46 5.34 53.92 5 41 C4.34 41 3.68 41 3 41 C2.93941406 39.99582031 2.87882813 38.99164062 2.81640625 37.95703125 C2.04380782 25.29015534 1.07085605 12.64521511 0 0 Z " fill="#3A383A" transform="translate(961,587)"/>
<path d="M0 0 C0.33 0 0.66 0 1 0 C1.02792326 1.45821481 1.04679418 2.91660243 1.0625 4.375 C1.07410156 5.18710937 1.08570313 5.99921875 1.09765625 6.8359375 C1.01824238 9.408947 0.80507965 11.85974733 0.51367188 14.41210938 C-0.10247915 20.4628817 -0.22470154 26.49216083 -0.31640625 32.5703125 C-0.33718735 33.73255341 -0.35796844 34.89479431 -0.37937927 36.09225464 C-0.4442597 39.76978189 -0.50347103 43.44737464 -0.5625 47.125 C-0.60574384 49.63281901 -0.64935991 52.14063163 -0.69335938 54.6484375 C-0.79987716 60.76555771 -0.90175257 66.88274166 -1 73 C-1.33 73 -1.66 73 -2 73 C-3.93161525 63.16440113 -4.15514383 53.71639765 -3.75 43.75 C-3.69758128 42.26050981 -3.64550221 40.77100764 -3.59375 39.28149414 C-2.22863271 2.22863271 -2.22863271 2.22863271 0 0 Z " fill="#3B393A" transform="translate(548,591)"/>
<path d="M0 0 C0.66 0.33 1.32 0.66 2 1 C0.97127935 2.28133549 -0.07372438 3.54960397 -1.125 4.8125 C-1.70507812 5.52019531 -2.28515625 6.22789062 -2.8828125 6.95703125 C-5 9 -5 9 -7.90625 10.43359375 C-11.47310332 12.23953842 -13.623716 14.36155521 -16.375 17.25 C-19.47303456 20.45740773 -22.5707297 23.57977475 -26 26.4375 C-35.03713462 34.18097527 -42.60655636 43.72624847 -50 53 C-50.66 52.67 -51.32 52.34 -52 52 C-37.92706943 35.07369965 -23.3242176 18.6696725 -6 5 C-4.76688856 3.98393525 -3.53689977 2.96404595 -2.3125 1.9375 C-1.549375 1.298125 -0.78625 0.65875 0 0 Z " fill="#323137" transform="translate(215,264)"/>
<path d="M0 0 C11.21903297 9.07070751 19.5664994 20.42005576 28 32 C28.5578418 32.75958008 29.11568359 33.51916016 29.69042969 34.30175781 C31.3667193 36.58952414 33.02924825 38.8866351 34.6875 41.1875 C35.20481689 41.89398682 35.72213379 42.60047363 36.25512695 43.32836914 C38.75474455 46.83713074 40.63073992 49.57746643 41 54 C37.61167329 50.89276766 35.25522983 47.45380781 32.875 43.5625 C28.34625887 36.34307016 23.2976519 29.66728874 18 23 C17.32066406 22.12601562 16.64132812 21.25203125 15.94140625 20.3515625 C11.52369218 14.71608822 6.81568527 9.45518438 1.90625 4.25 C0 2 0 2 0 0 Z " fill="#313036" transform="translate(841,296)"/>
<path d="M0 0 C0.33 0 0.66 0 1 0 C1.66 3.3 2.32 6.6 3 10 C3.33 10 3.66 10 4 10 C3.67 26.17 3.34 42.34 3 59 C2.34 58.67 1.68 58.34 1 58 C1.00785522 56.86908936 1.00785522 56.86908936 1.01586914 55.71533203 C1.21141789 29.67891093 1.21141789 29.67891093 -0.9140625 3.75 C-1 2 -1 2 0 0 Z " fill="#585149" transform="translate(473,595)"/>
<path d="M0 0 C0.33 0 0.66 0 1 0 C1.86305219 4.2850388 2.71721851 8.5717283 3.56347656 12.86010742 C3.85210247 14.31631228 4.143079 15.77205341 4.43652344 17.22729492 C4.85983111 19.32871514 5.27443387 21.43170194 5.6875 23.53515625 C5.93886719 24.797229 6.19023438 26.05930176 6.44921875 27.35961914 C6.99508434 30.96751003 7.09850474 34.3573767 7 38 C4.8480563 34.77208445 4.79913557 33.71599191 5 30 C4.34 30 3.68 30 3 30 C2.13167552 25.9195446 1.28280772 21.8352803 0.4375 17.75 C0.19064453 16.59113281 -0.05621094 15.43226563 -0.31054688 14.23828125 C-0.53935547 13.12324219 -0.76816406 12.00820313 -1.00390625 10.859375 C-1.21861572 9.83295898 -1.4333252 8.80654297 -1.65454102 7.74902344 C-1.9885882 5.09081052 -1.91748187 3.49107622 -1 1 C-0.67 0.67 -0.34 0.34 0 0 Z " fill="#484341" transform="translate(954,546)"/>
<path d="M0 0 C2.98205401 5.40670711 4.09636333 11.50005146 5.625 17.4375 C5.94984375 18.66533203 6.2746875 19.89316406 6.609375 21.15820312 C6.91617188 22.34220703 7.22296875 23.52621094 7.5390625 24.74609375 C7.81959473 25.82560303 8.10012695 26.9051123 8.38916016 28.01733398 C8.95529519 30.78171116 9.12163736 33.19030715 9 36 C6.70366176 32.55549263 6.45983515 30.06187717 6 26 C5.34 26 4.68 26 4 26 C2.30064286 20.5524154 0.70827478 15.07975159 -0.75 9.5625 C-1.14445313 8.07943359 -1.14445313 8.07943359 -1.546875 6.56640625 C-2 4 -2 4 -1 1 C-0.67 0.67 -0.34 0.34 0 0 Z " fill="#423F3F" transform="translate(938,481)"/>
<path d="M0 0 C1.8871875 0.2475 1.8871875 0.2475 3.8125 0.5 C7.34732228 0.90319067 10.75708267 1.01501637 14.3125 0.9375 C20.351379 0.86051712 26.08818232 1.84446147 32 3 C32 3.33 32 3.66 32 4 C37.94 5.485 37.94 5.485 44 7 C44 7.33 44 7.66 44 8 C35.45586022 7.37596406 27.01336745 6.21104058 18.55322266 4.89819336 C16.34533747 4.55792861 14.135696 4.23108784 11.92578125 3.90429688 C10.52070775 3.68831541 9.11575469 3.47154859 7.7109375 3.25390625 C6.44556152 3.06127197 5.18018555 2.8686377 3.87646484 2.67016602 C2.92723145 2.44901123 1.97799805 2.22785645 1 2 C0.67 1.34 0.34 0.68 0 0 Z " fill="#3C3A3B" transform="translate(643,811)"/>
<path d="M0 0 C0.33 0 0.66 0 1 0 C0.16605654 12.92612367 -5.05074142 23.57579651 -14.63671875 32.4375 C-21.05590452 37.68530151 -21.05590452 37.68530151 -25 39 C-25 38.34 -25 37.68 -25 37 C-23.49609375 35.73828125 -23.49609375 35.73828125 -21.4375 34.3125 C-11.41938713 26.94001553 -4.05809266 17.81196731 -1.625 5.25 C-1.45871094 4.05117188 -1.45871094 4.05117188 -1.2890625 2.828125 C-1 1 -1 1 0 0 Z " fill="#373539" transform="translate(450,316)"/>
<path d="M0 0 C0.99 0.33 1.98 0.66 3 1 C2.31292969 1.53109375 1.62585938 2.0621875 0.91796875 2.609375 C-0.43361328 3.66898438 -0.43361328 3.66898438 -1.8125 4.75 C-2.70582031 5.44609375 -3.59914063 6.1421875 -4.51953125 6.859375 C-6.76853937 8.8002513 -8.32139815 10.57427479 -10 13 C-10.46019531 13.5671875 -10.92039062 14.134375 -11.39453125 14.71875 C-17.87080706 22.85423697 -22.02585762 32.08619206 -25 42 C-25.33 42 -25.66 42 -26 42 C-25.18531882 27.60729919 -16.20993626 14.63091532 -6.11328125 4.875 C-2.04767187 1.26780499 -2.04767187 1.26780499 0 0 Z " fill="#333237" transform="translate(637,233)"/>
<path d="M0 0 C-2.8979868 1.6077872 -5.357989 2.3283013 -8.625 2.8125 C-18.94781307 4.81339769 -26.37008794 9.89225479 -33 18 C-35.80249614 22.36649541 -37.51144454 27.03814846 -39 32 C-40.49433146 27.66350871 -39.20808 25.34340271 -37.28515625 21.3671875 C-31.87138143 11.39531048 -23.71632162 4.78223116 -13 1 C-8.65758199 -0.22478457 -4.48065896 -0.07594337 0 0 Z " fill="#2A2B34" transform="translate(659,552)"/>
<path d="M0 0 C0.99 0.33 1.98 0.66 3 1 C2.39891424 6.65020618 0.92471317 11.66164461 -1 17 C-1.66 17 -2.32 17 -3 17 C-3.12117187 17.64066406 -3.24234375 18.28132813 -3.3671875 18.94140625 C-4.35679227 24.04928933 -5.48510951 29.02250269 -7 34 C-7.33 34 -7.66 34 -8 34 C-7.42209354 26.32442541 -5.58682691 19.31330898 -3.4375 11.9375 C-3.10814453 10.78572266 -2.77878906 9.63394531 -2.43945312 8.44726562 C-1.6327331 5.62959134 -0.81945719 2.81399107 0 0 Z " fill="#423E3E" transform="translate(573,472)"/>
<path d="M0 0 C12.25988186 5.55482061 22.40839875 17.82402917 32 27 C31.67 27.99 31.34 28.98 31 30 C30.54262451 29.53215088 30.08524902 29.06430176 29.61401367 28.58227539 C15.71327597 14.24820448 15.71327597 14.24820448 0 2 C0 1.34 0 0.68 0 0 Z " fill="#2F2F35" transform="translate(808,266)"/>
<path d="M0 0 C0.99 0.33 1.98 0.66 3 1 C4.16443054 3.38344375 5.11135357 5.63909069 6 8.125 C6.26055176 8.84204102 6.52110352 9.55908203 6.78955078 10.29785156 C10.66458126 21.34374833 12.59035245 32.25854581 12 44 C11.67 44 11.34 44 11 44 C10.93941406 43.43152344 10.87882812 42.86304688 10.81640625 42.27734375 C10.73261719 41.50519531 10.64882813 40.73304688 10.5625 39.9375 C10.48128906 39.18339844 10.40007812 38.42929687 10.31640625 37.65234375 C9.59254343 31.58440725 8.5401934 25.77907468 7 19.875 C5.06122216 12.35872359 5.06122216 12.35872359 4.5 9.0703125 C4.335 8.38710938 4.17 7.70390625 4 7 C3.34 6.67 2.68 6.34 2 6 C1.27306096 4.02111039 0.60183749 2.02045442 0 0 Z " fill="#5B544A" transform="translate(401,257)"/>
<path d="M0 0 C6.3161818 7.50152423 4.11149454 19.70878841 4 29 C3.34 28.67 2.68 28.34 2 28 C-0.18770789 18.77651552 -0.25770241 9.42045473 0 0 Z " fill="#413E3E" transform="translate(547,665)"/>
<path d="M0 0 C0.66 0 1.32 0 2 0 C2.11069824 0.60062256 2.22139648 1.20124512 2.33544922 1.82006836 C2.83965946 4.52764062 3.3571398 7.23250685 3.875 9.9375 C4.04902344 10.88302734 4.22304688 11.82855469 4.40234375 12.80273438 C4.66337891 14.15141602 4.66337891 14.15141602 4.9296875 15.52734375 C5.08679199 16.35999756 5.24389648 17.19265137 5.40576172 18.05053711 C5.60186035 18.69385986 5.79795898 19.33718262 6 20 C6.66 20.33 7.32 20.66 8 21 C8 27.27 8 33.54 8 40 C7.67 40 7.34 40 7 40 C6.84180786 39.08057617 6.84180786 39.08057617 6.68041992 38.14257812 C4.70459424 26.6757135 2.70356259 15.21754499 0.515625 3.7890625 C0 1 0 1 0 0 Z " fill="#5A524A" transform="translate(463,537)"/>
<path d="M0 0 C0.66 0.33 1.32 0.66 2 1 C-2.03308481 6.0234577 -5.21370122 9.10685061 -11 12 C-14.1383399 14.86992925 -17.08238651 17.9073297 -20 21 C-20.99 20.67 -21.98 20.34 -23 20 C-8.04255319 5.85106383 -8.04255319 5.85106383 0 0 Z " fill="#3B393B" transform="translate(215,264)"/>
<path d="M0 0 C0 0.33 0 0.66 0 1 C-0.65597168 1.11069824 -1.31194336 1.22139648 -1.98779297 1.33544922 C-4.95167151 1.84037517 -7.91328765 2.3575261 -10.875 2.875 C-11.90753906 3.04902344 -12.94007813 3.22304688 -14.00390625 3.40234375 C-14.99003906 3.57636719 -15.97617187 3.75039063 -16.9921875 3.9296875 C-17.90339355 4.08679199 -18.81459961 4.24389648 -19.75341797 4.40576172 C-22.18186393 4.84667689 -22.18186393 4.84667689 -24 7 C-26.05859375 7.44921875 -26.05859375 7.44921875 -28.4375 7.6875 C-29.21996094 7.77386719 -30.00242187 7.86023438 -30.80859375 7.94921875 C-33 8 -33 8 -36 7 C-24.11140422 2.95478949 -12.70142649 -0.20978332 0 0 Z " fill="#595149" transform="translate(355,823)"/>
<path d="M0 0 C0.66 0 1.32 0 2 0 C2.50488515 4.06190843 3.0030519 8.12461351 3.5 12.1875 C3.64308594 13.33798828 3.78617188 14.48847656 3.93359375 15.67382812 C4.06894531 16.78564453 4.20429687 17.89746094 4.34375 19.04296875 C4.46943359 20.06414795 4.59511719 21.08532715 4.72460938 22.13745117 C4.97897068 24.78141061 5.05115721 27.3462199 5 30 C4.34 29.67 3.68 29.34 3 29 C2.40234375 26.3828125 2.40234375 26.3828125 1.9375 23.125 C1.47112281 19.92588374 1.02344738 17.07034214 0 14 C-0.06970052 11.60509014 -0.08448003 9.20832309 -0.0625 6.8125 C-0.05347656 5.54019531 -0.04445312 4.26789062 -0.03515625 2.95703125 C-0.02355469 1.98121094 -0.01195312 1.00539063 0 0 Z " fill="#3A383A" transform="translate(57,683)"/>
<path d="M0 0 C1.93709638 3.25753924 2.23715445 5.65609928 2.1953125 9.421875 C2.18886719 10.44667969 2.18242187 11.47148438 2.17578125 12.52734375 C2.15902344 13.59082031 2.14226562 14.65429688 2.125 15.75 C2.11597656 16.82894531 2.10695313 17.90789063 2.09765625 19.01953125 C2.07411305 21.67991278 2.04122799 24.33984336 2 27 C1.67 27 1.34 27 1 27 C0.67 24.69 0.34 22.38 0 20 C-0.33 20 -0.66 20 -1 20 C-1.02888514 16.85418577 -1.04675923 13.70840531 -1.0625 10.5625 C-1.07087891 9.66466797 -1.07925781 8.76683594 -1.08789062 7.84179688 C-1.09111328 6.98779297 -1.09433594 6.13378906 -1.09765625 5.25390625 C-1.10551147 4.06776733 -1.10551147 4.06776733 -1.11352539 2.85766602 C-1 1 -1 1 0 0 Z " fill="#5F5147" transform="translate(448,621)"/>
<path d="M0 0 C0.33 0.66 0.66 1.32 1 2 C-4.66666667 7.66666667 -10.33333333 13.33333333 -16 19 C-16 14.06349214 -12.32693536 11.4052871 -9 8 C-6.06043996 5.26044168 -3.05755103 2.60689158 0 0 Z " fill="#575149" transform="translate(197,282)"/>
<path d="M0 0 C0.52464844 0.32871094 1.04929688 0.65742187 1.58984375 0.99609375 C9.84692227 6.06574762 18.41529957 10.51842785 27 15 C24 16 24 16 20.99609375 14.8125 C5.82113098 7.08343005 5.82113098 7.08343005 0 2 C0 1.34 0 0.68 0 0 Z " fill="#302F35" transform="translate(138,851)"/>
<path d="M0 0 C-7.33537063 3.36204487 -13.88582319 5.3380907 -22 5 C-19.35261084 3.5393715 -18.10551666 3 -15 3 C-15 2.34 -15 1.68 -15 1 C-13.0641649 0.63684334 -11.12624752 0.28477269 -9.1875 -0.0625 C-8.10855469 -0.25972656 -7.02960938 -0.45695313 -5.91796875 -0.66015625 C-3 -1 -3 -1 0 0 Z " fill="#403D3D" transform="translate(386,818)"/>
<path d="M0 0 C8.69309528 0.45753133 15.80710086 6.35958816 21.72265625 12.2890625 C23.13765184 14.18437769 23.59117143 15.68835204 24 18 C23.38125 17.34 22.7625 16.68 22.125 16 C15.55243445 9.48313415 8.73300129 4.20631931 0 1 C0 0.67 0 0.34 0 0 Z " fill="#343338" transform="translate(541,92)"/>
<path d="M0 0 C8.91 0 17.82 0 27 0 C26.67 0.99 26.34 1.98 26 3 C19.89427498 3.09691627 14.05066938 2.78829143 8 2 C6.4791751 1.8124316 4.95834224 1.62492774 3.4375 1.4375 C2.303125 1.293125 1.16875 1.14875 0 1 C0 0.67 0 0.34 0 0 Z " fill="#5A534A" transform="translate(693,221)"/>
<path d="M0 0 C1.485 0.99 1.485 0.99 3 2 C3.5452622 4.92167234 3.92678849 7.67824236 4.1875 10.625 C4.26935547 11.42679688 4.35121094 12.22859375 4.43554688 13.0546875 C4.63596151 15.03525571 4.8195807 17.01751032 5 19 C4.34 19 3.68 19 3 19 C2.49161436 16.96040523 1.99366114 14.91820862 1.5 12.875 C1.2215625 11.73804688 0.943125 10.60109375 0.65625 9.4296875 C0.03546235 6.18533302 -0.12006768 3.29185543 0 0 Z " fill="#3C393C" transform="translate(551,696)"/>
<path d="M0 0 C5.03681497 3.07122864 8.94510767 6.72916666 13 11 C12.67 11.99 12.34 12.98 12 14 C9.99387601 12.04761147 7.99507567 10.08862178 6 8.125 C5.42765625 7.56941406 4.8553125 7.01382812 4.265625 6.44140625 C2.80549218 4.99865596 1.39850702 3.5025626 0 2 C0 1.34 0 0.68 0 0 Z " fill="#413D3E" transform="translate(827,282)"/>
<path d="M0 0 C0.33 0 0.66 0 1 0 C1.09773576 5.27773105 0.82865896 10.36194589 0.21875 15.60546875 C-0.00764186 18.08365105 -0.03534025 20.51293005 0 23 C-0.99 23 -1.98 23 -3 23 C-2.88496731 20.4783624 -2.75825223 17.9581881 -2.625 15.4375 C-2.57859375 14.38079102 -2.57859375 14.38079102 -2.53125 13.30273438 C-2.27047442 8.58704259 -1.45341877 4.49614504 0 0 Z " fill="#5A5249" transform="translate(962,699)"/>
<path d="M0 0 C0.66 0.33 1.32 0.66 2 1 C1.09507812 1.8353125 1.09507812 1.8353125 0.171875 2.6875 C-4.85472083 7.48708828 -8.31501666 11.57938765 -11 18 C-12 15 -12 15 -10.99609375 12.6953125 C-7.82836545 7.47133952 -4.98612138 3.56151527 0 0 Z " fill="#AF7453" transform="translate(839,641)"/>
<path d="M0 0 C0.66 0.33 1.32 0.66 2 1 C0.58564218 3.06411622 -0.83139852 5.12630317 -2.25 7.1875 C-2.64574219 7.76564453 -3.04148438 8.34378906 -3.44921875 8.93945312 C-5.83937782 12.40714292 -8.324996 15.74213963 -11 19 C-10.45274596 14.4451625 -8.63935597 11.56361946 -6.0625 7.8125 C-5.35222656 6.76707031 -4.64195312 5.72164063 -3.91015625 4.64453125 C-2 2 -2 2 0 0 Z " fill="#333237" transform="translate(150,334)"/>
<path d="M0 0 C7.35342179 -0.20177072 13.94887561 -0.21211746 21 2 C18 4 18 4 16 4 C16 3.34 16 2.68 16 2 C14.77023437 2.03480469 14.77023437 2.03480469 13.515625 2.0703125 C11.89914062 2.09738281 11.89914062 2.09738281 10.25 2.125 C8.64898437 2.15980469 8.64898437 2.15980469 7.015625 2.1953125 C4.07529894 2.00487687 2.47638122 1.52670104 0 0 Z " fill="#F2CC68" transform="translate(328,249)"/>
<path d="M0 0 C-2.78898046 2.78898046 -4.7931899 2.40152206 -8.6875 2.625 C-9.88761719 2.69976562 -11.08773437 2.77453125 -12.32421875 2.8515625 C-15.8876657 2.99546365 -19.43410914 3.02746514 -23 3 C-16.03563982 -0.84132871 -7.75020825 -0.14561978 0 0 Z " fill="#5A534A" transform="translate(692,220)"/>
<path d="M0 0 C0.66 0 1.32 0 2 0 C2.67610423 1.89248819 3.34050439 3.7891602 4 5.6875 C4.37125 6.74324219 4.7425 7.79898437 5.125 8.88671875 C5.9391857 11.78362056 6.17709796 14.01700623 6 17 C4 14 4 14 4 12 C3.34 12 2.68 12 2 12 C1.17361624 9.10765685 1 7.11257569 1 4 C0.7018576 2.65835921 0.37756808 1.32148827 0 0 Z " fill="#363438" transform="translate(929,456)"/>
<path d="M0 0 C2.75903437 1.37951718 2.83859851 2.82240663 3.875 5.6875 C5.49357494 9.92865313 7.31398775 13.35469766 10 17 C9.67 17.66 9.34 18.32 9 19 C4.47266715 14.13730917 0 6.78328766 0 0 Z " fill="#353438" transform="translate(572,324)"/>
<path d="M0 0 C4.02103409 1.50677331 5.5593458 3.86565766 7.8125 7.4375 C8.43769531 8.40558594 9.06289063 9.37367188 9.70703125 10.37109375 C11 13 11 13 10 16 C8.70545435 14.08527667 7.41447056 12.16814482 6.125 10.25 C5.40570312 9.18265625 4.68640625 8.1153125 3.9453125 7.015625 C2.45492743 4.70522886 1.14800599 2.48936036 0 0 Z " fill="#353439" transform="translate(871,334)"/>
<path d="M0 0 C4.00999606 1.52977276 5.82653233 4.01531782 8.3125 7.4375 C9.03050781 8.40558594 9.74851562 9.37367188 10.48828125 10.37109375 C11.23658203 11.67240234 11.23658203 11.67240234 12 13 C11.67 13.99 11.34 14.98 11 16 C10.54109375 15.32453125 10.0821875 14.6490625 9.609375 13.953125 C8.99578125 13.06109375 8.3821875 12.1690625 7.75 11.25 C7.14671875 10.36828125 6.5434375 9.4865625 5.921875 8.578125 C4.06906065 5.95699361 4.06906065 5.95699361 1.765625 3.796875 C0 2 0 2 0 0 Z " fill="#2E2E35" transform="translate(390,239)"/>
<path d="M0 0 C1.25425781 0.00902344 2.50851562 0.01804688 3.80078125 0.02734375 C4.75339844 0.03894531 5.70601563 0.05054688 6.6875 0.0625 C6.6875 0.3925 6.6875 0.7225 6.6875 1.0625 C-6.9457574 3.35862756 -6.9457574 3.35862756 -13.3125 3.0625 C-12.9825 2.4025 -12.6525 1.7425 -12.3125 1.0625 C-8.23592562 -0.14005163 -4.22285258 -0.03946591 0 0 Z " fill="#333337" transform="translate(314.3125,219.9375)"/>
<path d="M0 0 C0.33 0 0.66 0 1 0 C1 4.29 1 8.58 1 13 C0.34 13 -0.32 13 -1 13 C-1 14.65 -1 16.3 -1 18 C-1.33 18 -1.66 18 -2 18 C-2 13.71 -2 9.42 -2 5 C-1.67 5 -1.34 5 -1 5 C-0.67 3.35 -0.34 1.7 0 0 Z " fill="#D29F5C" transform="translate(386,312)"/>
<path d="M0 0 C0.66 1.32 1.32 2.64 2 4 C2.66 4 3.32 4 4 4 C4.33 5.98 4.66 7.96 5 10 C4.01 10.33 3.02 10.66 2 11 C0.57741188 7.17679443 -0.24042276 4.08718695 0 0 Z " fill="#464240" transform="translate(71,751)"/>
<path d="M0 0 C0.99 0.66 1.98 1.32 3 2 C1.02 2.99 1.02 2.99 -1 4 C-1 4.33 -1 4.66 -1 5 C-4.63 4.67 -8.26 4.34 -12 4 C-12 3.67 -12 3.34 -12 3 C-10.82630859 2.80083984 -10.82630859 2.80083984 -9.62890625 2.59765625 C-8.61699219 2.42105469 -7.60507812 2.24445312 -6.5625 2.0625 C-5.55316406 1.88847656 -4.54382813 1.71445312 -3.50390625 1.53515625 C-1.0712562 1.25248903 -1.0712562 1.25248903 0 0 Z " fill="#5B534A" transform="translate(368,819)"/>
<path d="M0 0 C0.61488281 0.144375 1.22976563 0.28875 1.86328125 0.4375 C3.07564453 0.7159375 3.07564453 0.7159375 4.3125 1 C5.11300781 1.185625 5.91351562 1.37125 6.73828125 1.5625 C9.10695938 2.09495823 9.10695938 2.09495823 12 2 C12 2.66 12 3.32 12 4 C12.99 4.33 13.98 4.66 15 5 C9.33895411 4.50341703 5.12325529 3.45489316 0 1 C0 0.67 0 0.34 0 0 Z " fill="#353439" transform="translate(627,806)"/>
<path d="M0 0 C0.66 0.33 1.32 0.66 2 1 C-2.5 4 -2.5 4 -7 7 C-7.99 6.34 -8.98 5.68 -10 5 C-8.38007835 4.13624104 -6.75388139 3.28424146 -5.125 2.4375 C-4.22007812 1.96183594 -3.31515625 1.48617187 -2.3828125 0.99609375 C-1.20332031 0.50302734 -1.20332031 0.50302734 0 0 Z " fill="#595249" transform="translate(316,831)"/>
<path d="M0 0 C0.33 0 0.66 0 1 0 C1.33 3.63 1.66 7.26 2 11 C0 8 0 8 0 5 C-0.66 5 -1.32 5 -2 5 C-1.125 1.125 -1.125 1.125 0 0 Z " fill="#423E3E" transform="translate(954,546)"/>
<path d="M0 0 C1.07310858 3.27185553 0.89263102 5.42947592 0.0625 8.75 C-0.22947266 9.94882812 -0.22947266 9.94882812 -0.52734375 11.171875 C-0.68332031 11.77515625 -0.83929687 12.3784375 -1 13 C-1.33 13 -1.66 13 -2 13 C-2.2493357 11.39884424 -2.47378648 9.79379841 -2.6875 8.1875 C-2.81511719 7.29417969 -2.94273437 6.40085937 -3.07421875 5.48046875 C-3 3 -3 3 -1.51953125 1.17578125 C-1.01808594 0.78777344 -0.51664063 0.39976562 0 0 Z " fill="#585148" transform="translate(559,534)"/>
<path d="M0 0 C0 3.54404336 -0.60989485 4.10267905 -2.875 6.6875 C-3.40867187 7.31011719 -3.94234375 7.93273437 -4.4921875 8.57421875 C-6 10 -6 10 -8 10 C-6.34908222 5.70761377 -3.26245434 3.1206085 0 0 Z " fill="#EDC466" transform="translate(463,361)"/>
<path d="M0 0 C2.49361571 1.20381448 4.68143083 2.45428722 7 4 C7 4.99 7 5.98 7 7 C4.625 6.3125 4.625 6.3125 2 5 C0.6875 2.375 0.6875 2.375 0 0 Z " fill="#464241" transform="translate(130,844)"/>
<path d="M0 0 C5.75 0.75 5.75 0.75 8 3 C5.08517222 3.80967438 3.53886783 4.21845993 0.6875 3.0625 C0.130625 2.711875 -0.42625 2.36125 -1 2 C-0.67 1.34 -0.34 0.68 0 0 Z " fill="#464240" transform="translate(689,818)"/>
<path d="M0 0 C1.85776765 3.13498292 2.20140476 5.37471432 2 9 C1.67 8.34 1.34 7.68 1 7 C0.34 7 -0.32 7 -1 7 C-1.33 5.35 -1.66 3.7 -2 2 C-1.34 2 -0.68 2 0 2 C0 1.34 0 0.68 0 0 Z " fill="#433F3F" transform="translate(453,486)"/>
<path d="M0 0 C0.66 0.33 1.32 0.66 2 1 C-0.31 3.64 -2.62 6.28 -5 9 C-5 6 -5 6 -4 3 C-1.9375 1.3125 -1.9375 1.3125 0 0 Z " fill="#413E3F" transform="translate(215,264)"/>
<path d="M0 0 C2.97 1.65 5.94 3.3 9 5 C8.34 5.66 7.68 6.32 7 7 C5.82780457 6.21654285 4.66236332 5.42297164 3.5 4.625 C2.8503125 4.18414063 2.200625 3.74328125 1.53125 3.2890625 C1.0259375 2.86367188 0.520625 2.43828125 0 2 C0 1.34 0 0.68 0 0 Z " fill="#3E3B3C" transform="translate(138,851)"/>
<path d="M0 0 C3.36591866 1.44253657 5.51047079 3.33264727 8 6 C4.06830895 6 2.83572772 4.60580385 0 2 C0 1.34 0 0.68 0 0 Z " fill="#3B393B" transform="translate(808,266)"/>
<path d="" fill="#8E7A60" transform="translate(0,0)"/>
</svg>
